<svg xmlns="http://www.w3.org/2000/svg" width="14.021" height="11.191" viewBox="0 0 14.021 11.191">
    <defs>
        <style>
            .cls-1{fill:#5eab42}
        </style>
    </defs>
    <path id="Union_12" d="M-8123.758 10.607l-.708-.708-2.827-2.827a1 1 0 0 1 0-1.416l.706-.706a1 1 0 0 1 1.414 0l2.122 2.121L-8115.98 0a1 1 0 0 1 1.414 0l.708.708a1 1 0 0 1 0 1.414l-8.486 8.485a1 1 0 0 1-.707.292 1 1 0 0 1-.707-.292z" class="cls-1" data-name="Union 12" transform="translate(8127.586 .292)"/>
</svg>
