<svg xmlns="http://www.w3.org/2000/svg" width="200" height="38.436" viewBox="0 0 200 38.436">
    <defs>
        <style>
            .cls-1{fill:#262626}.cls-2{fill:#4e9431}.cls-3{fill:#5eab42}.cls-4,.cls-6{fill:none}.cls-4{stroke:#262626;stroke-width:.6px}.cls-5{stroke:none}
        </style>
    </defs>
    <g id="amulex_simple_ru" transform="translate(-139.61 -745)">
        <g id="Group_1" data-name="Group 1" transform="translate(139.61 745)">
            <g id="Group_2" data-name="Group 2" transform="translate(60.155 9.229)">
                <path id="Path_32" d="M121.435 31.366v-1.634a6.51 6.51 0 0 1-2.014 1.416 7.7 7.7 0 0 1-2.722.435 8.477 8.477 0 0 1-2.831-.381 5.149 5.149 0 0 1-1.96-1.2 5.312 5.312 0 0 1-1.416-3.811A5.937 5.937 0 0 1 112.016 22a6.509 6.509 0 0 1 4.628-1.633h4.736V19.28a2.086 2.086 0 0 0-.926-2.014 4.377 4.377 0 0 0-2.994-.816 5.684 5.684 0 0 0-2.341.381 4.5 4.5 0 0 0-1.579 1.361l-2.34-2.233a6.24 6.24 0 0 1 2.722-2.014 10.223 10.223 0 0 1 3.7-.545c4.9 0 7.35 2.069 7.35 6.152v11.977h-3.539zm-.055-8.166h-4.191a3.7 3.7 0 0 0-2.395.653 2.319 2.319 0 0 0-.817 1.906 2.319 2.319 0 0 0 .817 1.906 3.939 3.939 0 0 0 2.5.653 9.359 9.359 0 0 0 1.851-.163 2.928 2.928 0 0 0 1.524-.871 3.806 3.806 0 0 0 .762-2.668V23.2z" class="cls-1" data-name="Path 32" transform="translate(-110.488 -13.236)"/>
                <path id="Path_33" d="M161.455 31.457V20.024l-4.138 8.166h-2.234l-4.191-8.166v11.487H147.3V13.6h3.539l5.389 10.671 5.336-10.671h3.536v17.911h-3.648z" class="cls-1" data-name="Path 33" transform="translate(-127.262 -13.327)"/>
                <path id="Path_34" d="M194.52 28.045a5.57 5.57 0 0 1-1.851 2.668 5.368 5.368 0 0 1-3.1.871H188.1v-3.267h.926a2.232 2.232 0 0 0 2.559-1.905l-1.035-2.831L185.7 13.4h4.41l3.7 8.929L198 13.4h3.866z" class="cls-1" data-name="Path 34" transform="translate(-144.756 -13.236)"/>
                <path id="Path_35" d="M228.822 31.457V16.7h-5.172v5.172a26.534 26.534 0 0 1-.381 4.682 9.206 9.206 0 0 1-1.143 2.94 3.685 3.685 0 0 1-1.8 1.524 6.4 6.4 0 0 1-2.341.436H216.3V28.3h.545a4.856 4.856 0 0 0 1.2-.163 1.83 1.83 0 0 0 1.089-.871 6.513 6.513 0 0 0 .816-2.178 19.225 19.225 0 0 0 .327-4.029V13.6h12.249v17.911h-3.7z" class="cls-1" data-name="Path 35" transform="translate(-158.697 -13.327)"/>
                <path id="Path_36" d="M258.287 23.388a5.817 5.817 0 0 0 1.089 3.648 4.237 4.237 0 0 0 3.592 1.361 5.051 5.051 0 0 0 2.287-.49 7.184 7.184 0 0 0 1.906-1.416l2.232 2.178a10.9 10.9 0 0 1-2.994 2.123 8.829 8.829 0 0 1-3.592.653c-2.722 0-4.736-.762-6.1-2.341-1.361-1.524-2.014-3.865-2.014-6.914a11.939 11.939 0 0 1 .545-3.811 7.434 7.434 0 0 1 1.524-2.831 6.618 6.618 0 0 1 2.4-1.8 7.446 7.446 0 0 1 3.158-.653 8.083 8.083 0 0 1 3.1.6 6.334 6.334 0 0 1 2.395 1.742 8.233 8.233 0 0 1 1.524 2.722 10.279 10.279 0 0 1 .546 3.54v1.633h-11.6zm8.057-2.94a5.963 5.963 0 0 0-.327-1.416 4.6 4.6 0 0 0-.708-1.47 3.666 3.666 0 0 0-1.2-1.034 3.738 3.738 0 0 0-1.851-.381 3.641 3.641 0 0 0-3.1 1.416 4.6 4.6 0 0 0-.708 1.47 5.934 5.934 0 0 0-.272 1.416z" class="cls-1" data-name="Path 36" transform="translate(-176.186 -13.098)"/>
                <path id="Path_37" d="M291.5 31.457V13.6h3.648v8.548l6.805-8.548h4.3l-7.132 8.384 7.676 9.473h-4.41l-7.239-9.257v9.254z" class="cls-1" data-name="Path 37" transform="translate(-192.956 -13.327)"/>
                <path id="Path_38" d="M335.637 29.031a12.281 12.281 0 0 1-1.416 1.252 6.842 6.842 0 0 1-1.252.708 8.052 8.052 0 0 1-3.212.6 7.551 7.551 0 0 1-5.934-2.395 9.992 9.992 0 0 1-2.123-6.807 9.882 9.882 0 0 1 2.123-6.7A7.509 7.509 0 0 1 329.7 13.3a8.445 8.445 0 0 1 3.212.6 6.837 6.837 0 0 1 1.252.708 11.606 11.606 0 0 1 1.416 1.252l-2.45 2.341a7.365 7.365 0 0 0-1.524-1.252 3.944 3.944 0 0 0-1.906-.436 3.667 3.667 0 0 0-3.267 1.524 7.513 7.513 0 0 0-1.089 4.41c0 3.974 1.47 5.934 4.355 5.934a3.794 3.794 0 0 0 1.906-.436 9.682 9.682 0 0 0 1.525-1.251z" class="cls-1" data-name="Path 38" transform="translate(-206.714 -13.188)"/>
            </g>
            <g id="Group_4" data-name="Group 4">
                <path id="Path_39" d="M3.974 38.436L26.459 0l27.547 38.436L0 16.332l42.9 12.032-16.441-16.223z" class="cls-2" data-name="Path 39"/>
                <path id="Path_40" d="M7.3 38.436L29.784 7.35V0z" class="cls-3" data-name="Path 40" transform="translate(-3.326)"/>
                <path id="Path_41" d="M48.6 13.5v4.79l16.441 16.224z" class="cls-3" data-name="Path 41" transform="translate(-22.141 -6.15)"/>
                <path id="Path_42" d="M0 30l46.385 15.843 7.622 6.257" class="cls-3" data-name="Path 42" transform="translate(0 -13.668)"/>
                <path id="Path_43" d="M7.3 44.586l22.484-26.3V13.5z" class="cls-2" data-name="Path 43" transform="translate(-3.326 -6.15)"/>
            </g>
        </g>
        <g id="Group_3" data-name="Group 3" transform="translate(331.312 748.214)">
            <path id="Path_1" d="M-56.494-138.921v-4.243h1.881a2.5 2.5 0 0 1 .862.114.943.943 0 0 1 .472.4 1.2 1.2 0 0 1 .177.64 1.067 1.067 0 0 1-.292.761 1.479 1.479 0 0 1-.9.394 1.456 1.456 0 0 1 .339.211 2.918 2.918 0 0 1 .466.564l.738 1.155h-.706l-.561-.883q-.246-.382-.405-.585a1.275 1.275 0 0 0-.285-.284.844.844 0 0 0-.256-.113 1.688 1.688 0 0 0-.313-.02h-.651v1.884zm.561-2.37h1.207a1.81 1.81 0 0 0 .6-.08.641.641 0 0 0 .33-.255.689.689 0 0 0 .113-.381.632.632 0 0 0-.218-.495 1.022 1.022 0 0 0-.69-.194h-1.343z" class="cls-1" data-name="Path 1" transform="translate(59.028 145.174)"/>
            <g id="Ellipse_2" class="cls-4" data-name="Ellipse 2">
                <ellipse cx="4.149" cy="4.149" class="cls-5" rx="4.149" ry="4.149"/>
                <ellipse cx="4.149" cy="4.149" class="cls-6" rx="3.849" ry="3.849"/>
            </g>
        </g>
    </g>
</svg>
