<svg xmlns="http://www.w3.org/2000/svg" width="42.001" height="41.999" viewBox="0 0 42.001 41.999">
    <defs>
        <style>
            .cls-1{fill:#5bad3b}
        </style>
    </defs>
    <path id="Subtraction_3" d="M-8107-1478a20.874 20.874 0 0 1-8.175-1.65 20.93 20.93 0 0 1-6.675-4.5 20.93 20.93 0 0 1-4.5-6.675A20.86 20.86 0 0 1-8128-1499a20.864 20.864 0 0 1 1.65-8.174 20.934 20.934 0 0 1 4.5-6.675 20.932 20.932 0 0 1 6.675-4.5A20.872 20.872 0 0 1-8107-1520a20.872 20.872 0 0 1 8.175 1.65 20.932 20.932 0 0 1 6.675 4.5 20.934 20.934 0 0 1 4.5 6.675A20.864 20.864 0 0 1-8086-1499a20.86 20.86 0 0 1-1.65 8.173 20.93 20.93 0 0 1-4.5 6.675 20.93 20.93 0 0 1-6.675 4.5A20.874 20.874 0 0 1-8107-1478zm-7.492-21.341a2.118 2.118 0 0 0-1.506.624 2.117 2.117 0 0 0-.623 1.506 2.117 2.117 0 0 0 .623 1.506l4.019 4.021c.022.023.046.044.069.065l.031.028a2.132 2.132 0 0 0 1.407.53 2.117 2.117 0 0 0 1.508-.624l11.054-11.054a2.118 2.118 0 0 0 .625-1.508 2.112 2.112 0 0 0-.625-1.5 2.117 2.117 0 0 0-1.507-.624 2.117 2.117 0 0 0-1.507.624l-9.547 9.545-2.513-2.511a2.118 2.118 0 0 0-1.508-.628z" class="cls-1" data-name="Subtraction 3" transform="translate(8128 1519.999)"/>
</svg>
