<svg xmlns="http://www.w3.org/2000/svg" width="9.748" height="12" viewBox="0 0 9.748 12">
    <defs>
        <style>
            .cls-1{fill:#2b2b2b;stroke:rgba(0,0,0,0);stroke-miterlimit:10;opacity:.799}
        </style>
    </defs>
    <path id="Union_5" d="M1.329 11a.324.324 0 0 1-.345-.346V9.036H.245A.245.245 0 0 1 0 8.79V8.3a.245.245 0 0 1 .245-.246h.739V.361A.369.369 0 0 1 1.079.1a.325.325 0 0 1 .25-.1h3.812a3.888 3.888 0 0 1 2.643.841 3.029 3.029 0 0 1 .964 2.412 3.028 3.028 0 0 1-.964 2.412 3.885 3.885 0 0 1-2.643.841H1.972v1.548h3.175a.245.245 0 0 1 .245.246v.49a.245.245 0 0 1-.245.246H1.972v1.619a.327.327 0 0 1-.1.251.366.366 0 0 1-.26.094zm.643-5.437h3.09a3 3 0 0 0 2.023-.589 2.163 2.163 0 0 0 .675-1.721 2.163 2.163 0 0 0-.674-1.721A3 3 0 0 0 5.062.943h-3.09z" class="cls-1" data-name="Union 5" transform="translate(.5 .5)"/>
</svg>
